<svg width="501" height="255" viewBox="0 0 501 255" fill="none" xmlns="http://www.w3.org/2000/svg">
<path d="M7.5 240C11.1284 240 14.1547 242.577 14.8496 246H188V249H14.8496C14.1547 252.423 11.1284 255 7.5 255C3.35786 255 0 251.642 0 247.5C0 243.358 3.35786 240 7.5 240Z" fill="#18B8BF"/>
<path d="M493 255C489.372 255 486.345 252.423 485.65 249L347 249L347 246L485.65 246C486.345 242.577 489.372 240 493 240C497.142 240 500.5 243.358 500.5 247.5C500.5 251.642 497.142 255 493 255Z" fill="#EE3E88"/>
<rect x="197" y="246" width="150" height="3" fill="#FA943D"/>
<path d="M37.2216 229.597C34.1591 229.597 31.5142 228.96 29.2869 227.688C27.0729 226.402 25.3693 224.585 24.1761 222.239C22.983 219.879 22.3864 217.101 22.3864 213.906C22.3864 210.764 22.983 208.007 24.1761 205.634C25.3826 203.247 27.0663 201.391 29.2273 200.065C31.3883 198.726 33.9271 198.057 36.8438 198.057C38.7263 198.057 40.5028 198.362 42.1733 198.972C43.857 199.568 45.3419 200.496 46.6278 201.756C47.9271 203.015 48.9479 204.619 49.6903 206.568C50.4328 208.504 50.804 210.811 50.804 213.489V215.696H25.767V210.844H43.9034C43.8902 209.465 43.5919 208.239 43.0085 207.165C42.4252 206.078 41.6098 205.223 40.5625 204.599C39.5284 203.976 38.322 203.665 36.9432 203.665C35.4716 203.665 34.179 204.023 33.0653 204.739C31.9517 205.441 31.0833 206.369 30.4602 207.523C29.8504 208.663 29.5388 209.916 29.5256 211.281V215.517C29.5256 217.294 29.8504 218.818 30.5 220.091C31.1496 221.35 32.0578 222.318 33.2244 222.994C34.3911 223.657 35.7566 223.989 37.321 223.989C38.3684 223.989 39.3163 223.843 40.1648 223.551C41.0133 223.246 41.7491 222.802 42.3722 222.219C42.9953 221.635 43.4659 220.913 43.7841 220.051L50.5057 220.807C50.0814 222.583 49.2727 224.134 48.0795 225.46C46.8996 226.773 45.3883 227.794 43.5455 228.523C41.7027 229.239 39.5947 229.597 37.2216 229.597ZM92.0732 202.014H84.6357C84.4235 200.795 84.0324 199.714 83.4624 198.773C82.8923 197.818 82.183 197.009 81.3345 196.347C80.486 195.684 79.5182 195.187 78.4311 194.855C77.3572 194.51 76.1972 194.338 74.951 194.338C72.737 194.338 70.7749 194.895 69.0646 196.009C67.3544 197.109 66.0154 198.726 65.0476 200.861C64.0798 202.982 63.5959 205.574 63.5959 208.636C63.5959 211.752 64.0798 214.377 65.0476 216.511C66.0286 218.633 67.3677 220.237 69.0646 221.324C70.7749 222.398 72.7304 222.935 74.9311 222.935C76.1508 222.935 77.291 222.776 78.3516 222.457C79.4254 222.126 80.3866 221.642 81.2351 221.006C82.0968 220.369 82.8194 219.587 83.4027 218.659C83.9993 217.731 84.4103 216.67 84.6357 215.477L92.0732 215.517C91.7947 217.453 91.1915 219.269 90.2635 220.966C89.3487 222.663 88.1489 224.161 86.6641 225.46C85.1792 226.746 83.4425 227.754 81.4538 228.483C79.4652 229.199 77.2578 229.557 74.8317 229.557C71.2521 229.557 68.0571 228.728 65.2464 227.071C62.4358 225.414 60.2218 223.021 58.6044 219.892C56.987 216.763 56.1783 213.011 56.1783 208.636C56.1783 204.248 56.9936 200.496 58.6243 197.381C60.255 194.252 62.4756 191.859 65.2862 190.202C68.0968 188.545 71.2786 187.716 74.8317 187.716C77.0987 187.716 79.2067 188.034 81.1555 188.67C83.1044 189.307 84.8411 190.241 86.3658 191.474C87.8904 192.694 89.1432 194.192 90.1243 195.969C91.1186 197.732 91.7682 199.747 92.0732 202.014ZM111.835 229.597C108.852 229.597 106.267 228.94 104.08 227.628C101.892 226.315 100.195 224.479 98.9886 222.119C97.7955 219.759 97.1989 217.002 97.1989 213.847C97.1989 210.691 97.7955 207.927 98.9886 205.554C100.195 203.181 101.892 201.338 104.08 200.026C106.267 198.713 108.852 198.057 111.835 198.057C114.818 198.057 117.403 198.713 119.591 200.026C121.778 201.338 123.469 203.181 124.662 205.554C125.868 207.927 126.472 210.691 126.472 213.847C126.472 217.002 125.868 219.759 124.662 222.119C123.469 224.479 121.778 226.315 119.591 227.628C117.403 228.94 114.818 229.597 111.835 229.597ZM111.875 223.83C113.492 223.83 114.845 223.385 115.932 222.497C117.019 221.596 117.828 220.389 118.358 218.878C118.902 217.366 119.173 215.683 119.173 213.827C119.173 211.957 118.902 210.267 118.358 208.756C117.828 207.231 117.019 206.018 115.932 205.116C114.845 204.215 113.492 203.764 111.875 203.764C110.218 203.764 108.839 204.215 107.739 205.116C106.652 206.018 105.836 207.231 105.293 208.756C104.762 210.267 104.497 211.957 104.497 213.827C104.497 215.683 104.762 217.366 105.293 218.878C105.836 220.389 106.652 221.596 107.739 222.497C108.839 223.385 110.218 223.83 111.875 223.83ZM132.582 229V198.455H139.462V203.645H139.82C140.457 201.895 141.511 200.529 142.982 199.548C144.454 198.554 146.21 198.057 148.252 198.057C150.32 198.057 152.064 198.561 153.482 199.568C154.914 200.562 155.922 201.921 156.505 203.645H156.823C157.499 201.948 158.639 200.596 160.244 199.588C161.861 198.567 163.777 198.057 165.991 198.057C168.801 198.057 171.095 198.945 172.871 200.722C174.648 202.498 175.536 205.09 175.536 208.497V229H168.317V209.611C168.317 207.715 167.814 206.33 166.806 205.455C165.799 204.566 164.566 204.122 163.107 204.122C161.371 204.122 160.012 204.666 159.031 205.753C158.063 206.827 157.579 208.225 157.579 209.949V229H150.519V209.312C150.519 207.735 150.042 206.475 149.087 205.534C148.146 204.593 146.913 204.122 145.388 204.122C144.354 204.122 143.413 204.387 142.565 204.918C141.716 205.435 141.04 206.17 140.536 207.125C140.032 208.066 139.781 209.167 139.781 210.426V229H132.582ZM182.839 229V198.455H189.72V203.645H190.078C190.714 201.895 191.768 200.529 193.24 199.548C194.712 198.554 196.468 198.057 198.51 198.057C200.578 198.057 202.321 198.561 203.74 199.568C205.172 200.562 206.179 201.921 206.763 203.645H207.081C207.757 201.948 208.897 200.596 210.501 199.588C212.119 198.567 214.035 198.057 216.249 198.057C219.059 198.057 221.353 198.945 223.129 200.722C224.906 202.498 225.794 205.09 225.794 208.497V229H218.575V209.611C218.575 207.715 218.071 206.33 217.064 205.455C216.056 204.566 214.823 204.122 213.365 204.122C211.628 204.122 210.269 204.666 209.288 205.753C208.321 206.827 207.837 208.225 207.837 209.949V229H200.777V209.312C200.777 207.735 200.3 206.475 199.345 205.534C198.404 204.593 197.171 204.122 195.646 204.122C194.612 204.122 193.671 204.387 192.822 204.918C191.974 205.435 191.298 206.17 190.794 207.125C190.29 208.066 190.038 209.167 190.038 210.426V229H182.839ZM246.62 229.597C243.558 229.597 240.913 228.96 238.685 227.688C236.471 226.402 234.768 224.585 233.575 222.239C232.381 219.879 231.785 217.101 231.785 213.906C231.785 210.764 232.381 208.007 233.575 205.634C234.781 203.247 236.465 201.391 238.626 200.065C240.787 198.726 243.326 198.057 246.242 198.057C248.125 198.057 249.901 198.362 251.572 198.972C253.255 199.568 254.74 200.496 256.026 201.756C257.326 203.015 258.346 204.619 259.089 206.568C259.831 208.504 260.202 210.811 260.202 213.489V215.696H235.165V210.844H253.302C253.289 209.465 252.99 208.239 252.407 207.165C251.824 206.078 251.008 205.223 249.961 204.599C248.927 203.976 247.72 203.665 246.342 203.665C244.87 203.665 243.577 204.023 242.464 204.739C241.35 205.441 240.482 206.369 239.859 207.523C239.249 208.663 238.937 209.916 238.924 211.281V215.517C238.924 217.294 239.249 218.818 239.898 220.091C240.548 221.35 241.456 222.318 242.623 222.994C243.79 223.657 245.155 223.989 246.719 223.989C247.767 223.989 248.715 223.843 249.563 223.551C250.412 223.246 251.147 222.802 251.771 222.219C252.394 221.635 252.864 220.913 253.183 220.051L259.904 220.807C259.48 222.583 258.671 224.134 257.478 225.46C256.298 226.773 254.787 227.794 252.944 228.523C251.101 229.239 248.993 229.597 246.62 229.597ZM266.293 229V198.455H273.273V203.545H273.591C274.148 201.782 275.102 200.423 276.455 199.469C277.82 198.501 279.378 198.017 281.128 198.017C281.526 198.017 281.97 198.037 282.46 198.077C282.964 198.103 283.382 198.15 283.713 198.216V204.838C283.408 204.732 282.924 204.639 282.261 204.56C281.612 204.467 280.982 204.42 280.372 204.42C279.06 204.42 277.88 204.705 276.832 205.276C275.798 205.832 274.983 206.608 274.386 207.602C273.79 208.597 273.491 209.743 273.491 211.043V229H266.293ZM300.562 229.597C297.513 229.597 294.894 228.927 292.707 227.588C290.532 226.249 288.855 224.4 287.675 222.04C286.509 219.667 285.925 216.936 285.925 213.847C285.925 210.744 286.522 208.007 287.715 205.634C288.908 203.247 290.592 201.391 292.766 200.065C294.954 198.726 297.539 198.057 300.522 198.057C303.001 198.057 305.195 198.514 307.104 199.429C309.027 200.33 310.558 201.61 311.698 203.267C312.838 204.911 313.488 206.833 313.647 209.034H306.766C306.488 207.562 305.825 206.336 304.778 205.355C303.744 204.361 302.358 203.864 300.621 203.864C299.15 203.864 297.857 204.261 296.744 205.057C295.63 205.839 294.762 206.966 294.138 208.438C293.529 209.909 293.224 211.672 293.224 213.727C293.224 215.809 293.529 217.598 294.138 219.097C294.748 220.581 295.603 221.728 296.704 222.537C297.817 223.332 299.123 223.73 300.621 223.73C301.682 223.73 302.63 223.531 303.465 223.134C304.314 222.723 305.023 222.133 305.593 221.364C306.163 220.595 306.554 219.66 306.766 218.56H313.647C313.475 220.721 312.838 222.636 311.738 224.307C310.638 225.964 309.139 227.263 307.244 228.205C305.348 229.133 303.121 229.597 300.562 229.597ZM333.081 229.597C330.018 229.597 327.374 228.96 325.146 227.688C322.932 226.402 321.229 224.585 320.036 222.239C318.842 219.879 318.246 217.101 318.246 213.906C318.246 210.764 318.842 208.007 320.036 205.634C321.242 203.247 322.926 201.391 325.087 200.065C327.248 198.726 329.786 198.057 332.703 198.057C334.586 198.057 336.362 198.362 338.033 198.972C339.716 199.568 341.201 200.496 342.487 201.756C343.786 203.015 344.807 204.619 345.55 206.568C346.292 208.504 346.663 210.811 346.663 213.489V215.696H321.626V210.844H339.763C339.75 209.465 339.451 208.239 338.868 207.165C338.285 206.078 337.469 205.223 336.422 204.599C335.388 203.976 334.181 203.665 332.803 203.665C331.331 203.665 330.038 204.023 328.925 204.739C327.811 205.441 326.943 206.369 326.32 207.523C325.71 208.663 325.398 209.916 325.385 211.281V215.517C325.385 217.294 325.71 218.818 326.359 220.091C327.009 221.35 327.917 222.318 329.084 222.994C330.25 223.657 331.616 223.989 333.18 223.989C334.228 223.989 335.176 223.843 336.024 223.551C336.873 223.246 337.608 222.802 338.232 222.219C338.855 221.635 339.325 220.913 339.643 220.051L346.365 220.807C345.941 222.583 345.132 224.134 343.939 225.46C342.759 226.773 341.248 227.794 339.405 228.523C337.562 229.239 335.454 229.597 333.081 229.597ZM366.962 188.273H375.991L388.082 217.784H388.559L400.65 188.273H409.678V229H402.599V201.02H402.221L390.965 228.881H385.675L374.42 200.96H374.042V229H366.962V188.273ZM417.712 229V188.273H443.803V194.457H425.09V205.514H442.013V211.699H425.09V229H417.712ZM450.525 229V188.273H477.013V194.457H457.903V205.514H475.641V211.699H457.903V222.815H477.173V229H450.525Z" fill="black"/>
<rect x="229.5" width="38" height="38" rx="2" fill="#676B76"/>
<rect x="202.5" y="149" width="22" height="22" rx="2" fill="#009ED5"/>
<rect x="298.5" y="149" width="22" height="22" rx="2" fill="#0BABA3"/>
<rect x="323.5" width="38" height="38" rx="2" fill="#FA9037"/>
<rect x="276.5" width="38" height="38" rx="2" fill="#92929C"/>
<rect x="229.5" y="72" width="38" height="38" rx="2" fill="#17A0BB"/>
<rect x="276.5" y="72" width="38" height="38" rx="2" fill="#E6443C"/>
<path d="M355.905 46C357.217 46 358.174 47.2416 357.84 48.5098L355.337 58.0195L344.346 107.931C344.144 108.847 343.331 109.5 342.393 109.5H329.473C328.2 109.5 327.25 108.327 327.517 107.082L336.515 65H219.5C218.395 65 217.5 64.1046 217.5 63V48C217.5 46.8956 218.396 46 219.5 46H355.905Z" fill="#16A0BC"/>
<path d="M139 3C139 1.89543 139.895 1 141 1H176.334C176.445 1 176.553 1.00868 176.66 1.03254C177.332 1.18149 180.042 1.90666 183.5 4.5C187.5 7.5 188.5 10.5 188.5 10.5C188.5 10.5 218.5 112 219.5 115C220.5 118 221.421 118.016 225 118H339.5C340.605 118 341.5 118.895 341.5 120V135C341.5 136.105 340.675 137 339.571 137C323.738 137 215.707 137 212 137C208 137 204.5 136 203 132C201.5 128 172 27.5 171 25C170 22.5 168.5 21.5 165.5 21.5C163.035 21.5 146.725 21.5 140.99 21.5C139.886 21.5 139 20.6046 139 19.5V3Z" fill="#1A44A1"/>
</svg>
